<?xml version="1.0" encoding="UTF-8" standalone="no"?>
<!-- Created with matplotlib (http://matplotlib.org/) -->

<svg
   xmlns:dc="http://purl.org/dc/elements/1.1/"
   xmlns:cc="http://creativecommons.org/ns#"
   xmlns:rdf="http://www.w3.org/1999/02/22-rdf-syntax-ns#"
   xmlns:svg="http://www.w3.org/2000/svg"
   xmlns="http://www.w3.org/2000/svg"
   xmlns:xlink="http://www.w3.org/1999/xlink"
   xmlns:sodipodi="http://sodipodi.sourceforge.net/DTD/sodipodi-0.dtd"
   xmlns:inkscape="http://www.inkscape.org/namespaces/inkscape"
   height="75.106133pt"
   version="1.1"
   viewBox="0 0 270.05951 75.106133"
   width="270.05951pt"
   id="svg2"
   inkscape:version="0.91 r13725"
   sodipodi:docname="logo_rtd.svg">
  <metadata
     id="metadata208">
    <rdf:RDF>
      <cc:Work
         rdf:about="">
        <dc:format>image/svg+xml</dc:format>
        <dc:type
           rdf:resource="http://purl.org/dc/dcmitype/StillImage" />
        <dc:title />
      </cc:Work>
    </rdf:RDF>
  </metadata>
  <sodipodi:namedview
     pagecolor="#2980b9"
     bordercolor="#000000"
     borderopacity="1"
     objecttolerance="10"
     gridtolerance="10"
     guidetolerance="10"
     inkscape:pageopacity="0"
     inkscape:pageshadow="2"
     inkscape:window-width="1920"
     inkscape:window-height="1016"
     id="namedview206"
     showgrid="false"
     inkscape:zoom="2.3111111"
     inkscape:cx="136.68416"
     inkscape:cy="66.10852"
     inkscape:window-x="0"
     inkscape:window-y="27"
     inkscape:window-maximized="1"
     inkscape:current-layer="svg2"
     fit-margin-top="0"
     fit-margin-left="0"
     fit-margin-right="0"
     fit-margin-bottom="0" />
  <defs
     id="defs4"
     style="stroke-linecap:butt;stroke-linejoin:round">
    <style
       type="text/css"
       id="style6">
*{stroke-linecap:butt;stroke-linejoin:round;}
  </style>
    <clipPath
       clipPathUnits="userSpaceOnUse"
       id="clipPath2815"
       style="stroke-linecap:butt;stroke-linejoin:round">
      <rect
         style="opacity:1;fill:#d533e4;fill-opacity:0.54098361;stroke:none;stroke-width:1;stroke-linecap:butt;stroke-linejoin:round;stroke-miterlimit:4;stroke-dasharray:none;stroke-opacity:1"
         id="rect1913"
         width="23"
         height="30"
         x="5"
         y="1"
         ry="4.6187186"
         rx="4.6187186" />
    </clipPath>
    <linearGradient
       id="linearGradient4825">
      <stop
         id="stop4827"
         offset="0"
         style="stop-color:#0084dd;stop-opacity:1" />
      <stop
         id="stop4829"
         offset="1"
         style="stop-color:white;stop-opacity:1" />
    </linearGradient>
    <linearGradient
       id="linearGradient4843">
      <stop
         style="stop-color:white;stop-opacity:0.49411765;"
         offset="0"
         id="stop4845" />
      <stop
         style="stop-color:white;stop-opacity:0.25098041;"
         offset="1"
         id="stop4847" />
    </linearGradient>
    <defs
       id="defs127">
      <path
         d="m 18.109375,8.203125 0,-29 -9.03125,0 0,75.484375 9.03125,0 0,-8.296875 q 2.84375,4.875 7.15625,7.234375 Q 29.59375,56 35.59375,56 q 9.96875,0 16.1875,-7.90625 6.234375,-7.90625 6.234375,-20.796875 0,-12.890625 -6.234375,-20.8125 -6.21875,-7.90625 -16.1875,-7.90625 -6,0 -10.328125,2.375 -4.3125,2.375 -7.15625,7.25 M 48.6875,27.296875 q 0,9.90625 -4.078125,15.546875 -4.078125,5.640625 -11.203125,5.640625 -7.140625,0 -11.21875,-5.640625 -4.078125,-5.640625 -4.078125,-15.546875 0,-9.90625 4.078125,-15.546875 4.078125,-5.640625 11.21875,-5.640625 7.125,0 11.203125,5.640625 4.078125,5.640625 4.078125,15.546875"
         id="DejaVuSans-70"
         inkscape:connector-curvature="0"
         style="stroke-linecap:butt;stroke-linejoin:round" />
      <path
         d="m 34.28125,27.484375 q -10.890625,0 -15.09375,-2.484375 -4.203125,-2.484375 -4.203125,-8.5 0,-4.78125 3.15625,-7.59375 3.15625,-2.796875 8.5625,-2.796875 7.484375,0 12,5.296875 4.515625,5.296875 4.515625,14.078125 l 0,2 z m 17.921875,3.71875 0,-31.203125 -8.984375,0 0,8.296875 q -3.078125,-4.96875 -7.671875,-7.34375 -4.59375,-2.375 -11.234375,-2.375 -8.390625,0 -13.359375,4.71875 Q 6,8.015625 6,15.921875 q 0,9.21875 6.171875,13.90625 6.1875,4.6875 18.4375,4.6875 l 12.609375,0 0,0.890625 q 0,6.203125 -4.078125,9.59375 -4.078125,3.390625 -11.453125,3.390625 -4.6875,0 -9.140625,-1.125 -4.4375,-1.125 -8.53125,-3.375 l 0,8.3125 q 4.921875,1.90625 9.5625,2.84375 Q 24.21875,56 28.609375,56 q 11.875,0 17.734375,-6.15625 5.859375,-6.140625 5.859375,-18.640625"
         id="DejaVuSans-61"
         inkscape:connector-curvature="0"
         style="stroke-linecap:butt;stroke-linejoin:round" />
      <path
         d="m 54.890625,33.015625 0,-33.015625 -8.984375,0 0,32.71875 q 0,7.765625 -3.03125,11.609375 -3.03125,3.859375 -9.078125,3.859375 -7.28125,0 -11.484375,-4.640625 -4.203125,-4.625 -4.203125,-12.640625 l 0,-30.90625 -9.03125,0 0,54.6875 9.03125,0 0,-8.5 q 3.234375,4.9375 7.59375,7.375 4.375,2.4375 10.09375,2.4375 9.421875,0 14.25,-5.828125 4.84375,-5.828125 4.84375,-17.15625"
         id="DejaVuSans-6e"
         inkscape:connector-curvature="0"
         style="stroke-linecap:butt;stroke-linejoin:round" />
      <path
         d="m 45.40625,46.390625 0,29.59375 8.984375,0 0,-75.984375 -8.984375,0 0,8.203125 q -2.828125,-4.875 -7.15625,-7.25 -4.3125,-2.375 -10.375,-2.375 -9.90625,0 -16.140625,7.90625 -6.21875,7.921875 -6.21875,20.8125 0,12.890625 6.21875,20.796875 Q 17.96875,56 27.875,56 q 6.0625,0 10.375,-2.375 4.328125,-2.359375 7.15625,-7.234375 M 14.796875,27.296875 q 0,-9.90625 4.078125,-15.546875 4.078125,-5.640625 11.203125,-5.640625 7.125,0 11.21875,5.640625 4.109375,5.640625 4.109375,15.546875 0,9.90625 -4.109375,15.546875 -4.09375,5.640625 -11.21875,5.640625 -7.125,0 -11.203125,-5.640625 -4.078125,-5.640625 -4.078125,-15.546875"
         id="DejaVuSans-64"
         inkscape:connector-curvature="0"
         style="stroke-linecap:butt;stroke-linejoin:round" />
      <path
         d="m 44.28125,53.078125 0,-8.5 Q 40.484375,46.53125 36.375,47.5 q -4.09375,0.984375 -8.5,0.984375 -6.6875,0 -10.03125,-2.046875 Q 14.5,44.390625 14.5,40.28125 q 0,-3.125 2.390625,-4.90625 2.390625,-1.78125 9.625,-3.390625 l 3.078125,-0.6875 Q 39.15625,29.25 43.1875,25.515625 47.21875,21.78125 47.21875,15.09375 q 0,-7.625 -6.03125,-12.078125 -6.03125,-4.4375 -16.578125,-4.4375 -4.390625,0 -9.15625,0.859375 Q 10.6875,0.296875 5.421875,2 l 0,9.28125 q 4.984375,-2.59375 9.8125,-3.890625 4.828125,-1.28125 9.578125,-1.28125 6.34375,0 9.75,2.171875 3.421875,2.171875 3.421875,6.125 0,3.65625 -2.46875,5.609375 -2.453125,1.953125 -10.8125,3.765625 l -3.125,0.734375 q -8.34375,1.75 -12.0625,5.390625 -3.703125,3.640625 -3.703125,9.984375 0,7.71875 5.46875,11.90625 Q 16.75,56 26.8125,56 q 4.96875,0 9.359375,-0.734375 4.40625,-0.71875 8.109375,-2.1875"
         id="DejaVuSans-73"
         inkscape:connector-curvature="0"
         style="stroke-linecap:butt;stroke-linejoin:round" />
    </defs>
    <clipPath
       clipPathUnits="userSpaceOnUse"
       id="clipPath2815-3"
       style="stroke-linecap:butt;stroke-linejoin:round">
      <rect
         style="opacity:1;fill:#d533e4;fill-opacity:0.54098361;stroke:none;stroke-width:1;stroke-linecap:butt;stroke-linejoin:round;stroke-miterlimit:4;stroke-dasharray:none;stroke-opacity:1"
         id="rect1913-6"
         width="23"
         height="30"
         x="5"
         y="1"
         ry="4.6187186"
         rx="4.6187186" />
    </clipPath>
    <linearGradient
       inkscape:collect="always"
       xlink:href="#linearGradient4825"
       id="linearGradient4386-3"
       gradientUnits="userSpaceOnUse"
       x1="253.74718"
       y1="412.82977"
       x2="188.00023"
       y2="542.33295" />
    <linearGradient
       inkscape:collect="always"
       xlink:href="#linearGradient4825"
       id="linearGradient2975-2"
       gradientUnits="userSpaceOnUse"
       x1="253.74718"
       y1="412.82977"
       x2="188.00023"
       y2="542.33295" />
    <linearGradient
       inkscape:collect="always"
       xlink:href="#linearGradient4843"
       id="linearGradient4344"
       gradientUnits="userSpaceOnUse"
       gradientTransform="matrix(2.3236183,0,0,2.3503271,142.01355,-1.0912239)"
       x1="15.5"
       y1="5.9497476"
       x2="4"
       y2="31" />
    <clipPath
       id="pfceed726e3-6"
       style="stroke-linecap:butt;stroke-linejoin:round">
      <rect
         height="72"
         width="69.120003"
         x="349.92001"
         y="9"
         id="rect204-2"
         style="stroke-linecap:butt;stroke-linejoin:round" />
    </clipPath>
    <clipPath
       id="clipPath4364"
       style="stroke-linecap:butt;stroke-linejoin:round">
      <rect
         height="72"
         width="69.120003"
         x="349.92001"
         y="9"
         id="rect4366"
         style="stroke-linecap:butt;stroke-linejoin:round" />
    </clipPath>
    <clipPath
       id="clipPath4368"
       style="stroke-linecap:butt;stroke-linejoin:round">
      <rect
         height="72"
         width="69.120003"
         x="349.92001"
         y="9"
         id="rect4370"
         style="stroke-linecap:butt;stroke-linejoin:round" />
    </clipPath>
    <clipPath
       id="p4dc94feb3b-6"
       style="stroke-linecap:butt;stroke-linejoin:round">
      <rect
         height="72"
         width="69.120003"
         x="272.16"
         y="9"
         id="rect201-1"
         style="stroke-linecap:butt;stroke-linejoin:round" />
    </clipPath>
    <clipPath
       id="clipPath4374"
       style="stroke-linecap:butt;stroke-linejoin:round">
      <rect
         height="72"
         width="69.120003"
         x="272.16"
         y="9"
         id="rect4376"
         style="stroke-linecap:butt;stroke-linejoin:round" />
    </clipPath>
    <clipPath
       id="clipPath4378"
       style="stroke-linecap:butt;stroke-linejoin:round">
      <rect
         height="72"
         width="69.120003"
         x="272.16"
         y="9"
         id="rect4380"
         style="stroke-linecap:butt;stroke-linejoin:round" />
    </clipPath>
    <clipPath
       id="clipPath4382"
       style="stroke-linecap:butt;stroke-linejoin:round">
      <rect
         height="72"
         width="69.120003"
         x="272.16"
         y="9"
         id="rect4384"
         style="stroke-linecap:butt;stroke-linejoin:round" />
    </clipPath>
    <clipPath
       id="p65e1c8b035-8"
       style="stroke-linecap:butt;stroke-linejoin:round">
      <rect
         height="72"
         width="69.120003"
         x="194.39999"
         y="9"
         id="rect198-7"
         style="stroke-linecap:butt;stroke-linejoin:round" />
    </clipPath>
    <clipPath
       id="clipPath4388"
       style="stroke-linecap:butt;stroke-linejoin:round">
      <rect
         height="72"
         width="69.120003"
         x="194.39999"
         y="9"
         id="rect4390"
         style="stroke-linecap:butt;stroke-linejoin:round" />
    </clipPath>
    <clipPath
       id="clipPath4392"
       style="stroke-linecap:butt;stroke-linejoin:round">
      <rect
         height="72"
         width="69.120003"
         x="194.39999"
         y="9"
         id="rect4394"
         style="stroke-linecap:butt;stroke-linejoin:round" />
    </clipPath>
    <clipPath
       id="clipPath4396"
       style="stroke-linecap:butt;stroke-linejoin:round">
      <rect
         height="72"
         width="69.120003"
         x="194.39999"
         y="9"
         id="rect4398"
         style="stroke-linecap:butt;stroke-linejoin:round" />
    </clipPath>
    <clipPath
       id="clipPath4400"
       style="stroke-linecap:butt;stroke-linejoin:round">
      <rect
         height="72"
         width="69.120003"
         x="194.39999"
         y="9"
         id="rect4402"
         style="stroke-linecap:butt;stroke-linejoin:round" />
    </clipPath>
    <clipPath
       id="clipPath4404"
       style="stroke-linecap:butt;stroke-linejoin:round">
      <rect
         height="72"
         width="69.120003"
         x="194.39999"
         y="9"
         id="rect4406"
         style="stroke-linecap:butt;stroke-linejoin:round" />
    </clipPath>
    <clipPath
       id="clipPath4408"
       style="stroke-linecap:butt;stroke-linejoin:round">
      <rect
         height="72"
         width="69.120003"
         x="194.39999"
         y="9"
         id="rect4410"
         style="stroke-linecap:butt;stroke-linejoin:round" />
    </clipPath>
    <clipPath
       id="clipPath4412"
       style="stroke-linecap:butt;stroke-linejoin:round">
      <rect
         height="72"
         width="69.120003"
         x="194.39999"
         y="9"
         id="rect4414"
         style="stroke-linecap:butt;stroke-linejoin:round" />
    </clipPath>
    <clipPath
       clipPathUnits="userSpaceOnUse"
       id="clipPath2815-3-0"
       style="stroke-linecap:butt;stroke-linejoin:round">
      <rect
         style="opacity:1;fill:#d533e4;fill-opacity:0.54098361;stroke:none;stroke-width:1;stroke-linecap:butt;stroke-linejoin:round;stroke-miterlimit:4;stroke-dasharray:none;stroke-opacity:1"
         id="rect1913-6-4"
         width="23"
         height="30"
         x="5"
         y="1"
         ry="4.6187186"
         rx="4.6187186" />
    </clipPath>
    <clipPath
       clipPathUnits="userSpaceOnUse"
       id="clipPath2815-3-7"
       style="stroke-linecap:butt;stroke-linejoin:round">
      <rect
         style="opacity:1;fill:#d533e4;fill-opacity:0.54098361;stroke:none;stroke-width:1;stroke-linecap:butt;stroke-linejoin:round;stroke-miterlimit:4;stroke-dasharray:none;stroke-opacity:1"
         id="rect1913-6-6"
         width="23"
         height="30"
         x="5"
         y="1"
         ry="4.6187186"
         rx="4.6187186" />
    </clipPath>
    <clipPath
       id="p4dc94feb3b-2"
       style="stroke-linecap:butt;stroke-linejoin:round">
      <rect
         height="72"
         width="69.120003"
         x="272.16"
         y="9"
         id="rect201-9"
         style="stroke-linecap:butt;stroke-linejoin:round" />
    </clipPath>
    <clipPath
       id="clipPath5198"
       style="stroke-linecap:butt;stroke-linejoin:round">
      <rect
         height="72"
         width="69.120003"
         x="272.16"
         y="9"
         id="rect5200"
         style="stroke-linecap:butt;stroke-linejoin:round" />
    </clipPath>
    <clipPath
       id="clipPath5202"
       style="stroke-linecap:butt;stroke-linejoin:round">
      <rect
         height="72"
         width="69.120003"
         x="272.16"
         y="9"
         id="rect5204"
         style="stroke-linecap:butt;stroke-linejoin:round" />
    </clipPath>
    <clipPath
       id="clipPath5206"
       style="stroke-linecap:butt;stroke-linejoin:round">
      <rect
         height="72"
         width="69.120003"
         x="272.16"
         y="9"
         id="rect5208"
         style="stroke-linecap:butt;stroke-linejoin:round" />
    </clipPath>
    <clipPath
       id="pfceed726e3-6-9"
       style="stroke-linecap:butt;stroke-linejoin:round">
      <rect
         height="72"
         width="69.120003"
         x="349.92001"
         y="9"
         id="rect204-2-8"
         style="stroke-linecap:butt;stroke-linejoin:round" />
    </clipPath>
    <clipPath
       id="clipPath5329"
       style="stroke-linecap:butt;stroke-linejoin:round">
      <rect
         height="72"
         width="69.120003"
         x="349.92001"
         y="9"
         id="rect5331"
         style="stroke-linecap:butt;stroke-linejoin:round" />
    </clipPath>
    <clipPath
       id="clipPath5333"
       style="stroke-linecap:butt;stroke-linejoin:round">
      <rect
         height="72"
         width="69.120003"
         x="349.92001"
         y="9"
         id="rect5335"
         style="stroke-linecap:butt;stroke-linejoin:round" />
    </clipPath>
    <clipPath
       clipPathUnits="userSpaceOnUse"
       id="clipPath2815-3-7-9"
       style="stroke-linecap:butt;stroke-linejoin:round">
      <rect
         style="opacity:1;fill:#d533e4;fill-opacity:0.54098361;stroke:none;stroke-width:1;stroke-linecap:butt;stroke-linejoin:round;stroke-miterlimit:4;stroke-dasharray:none;stroke-opacity:1"
         id="rect1913-6-6-6"
         width="23"
         height="30"
         x="5"
         y="1"
         ry="4.6187186"
         rx="4.6187186" />
    </clipPath>
    <clipPath
       clipPathUnits="userSpaceOnUse"
       id="clipPath2815-3-7-9-1"
       style="stroke-linecap:butt;stroke-linejoin:round">
      <rect
         style="opacity:1;fill:#d533e4;fill-opacity:0.54098361;stroke:none;stroke-width:1;stroke-linecap:butt;stroke-linejoin:round;stroke-miterlimit:4;stroke-dasharray:none;stroke-opacity:1"
         id="rect1913-6-6-6-8"
         width="23"
         height="30"
         x="5"
         y="1"
         ry="4.6187186"
         rx="4.6187186" />
    </clipPath>
    <clipPath
       id="pfceed726e3-6-9-8"
       style="stroke-linecap:butt;stroke-linejoin:round">
      <rect
         height="72"
         width="69.120003"
         x="349.92001"
         y="9"
         id="rect204-2-8-8"
         style="stroke-linecap:butt;stroke-linejoin:round" />
    </clipPath>
    <clipPath
       id="clipPath5510"
       style="stroke-linecap:butt;stroke-linejoin:round">
      <rect
         height="72"
         width="69.120003"
         x="349.92001"
         y="9"
         id="rect5512"
         style="stroke-linecap:butt;stroke-linejoin:round" />
    </clipPath>
    <clipPath
       id="clipPath5514"
       style="stroke-linecap:butt;stroke-linejoin:round">
      <rect
         height="72"
         width="69.120003"
         x="349.92001"
         y="9"
         id="rect5516"
         style="stroke-linecap:butt;stroke-linejoin:round" />
    </clipPath>
    <clipPath
       id="p4dc94feb3b-2-7"
       style="stroke-linecap:butt;stroke-linejoin:round">
      <rect
         height="72"
         width="69.120003"
         x="272.16"
         y="9"
         id="rect201-9-7"
         style="stroke-linecap:butt;stroke-linejoin:round" />
    </clipPath>
    <clipPath
       id="clipPath5637"
       style="stroke-linecap:butt;stroke-linejoin:round">
      <rect
         height="72"
         width="69.120003"
         x="272.16"
         y="9"
         id="rect5639"
         style="stroke-linecap:butt;stroke-linejoin:round" />
    </clipPath>
    <clipPath
       id="clipPath5641"
       style="stroke-linecap:butt;stroke-linejoin:round">
      <rect
         height="72"
         width="69.120003"
         x="272.16"
         y="9"
         id="rect5643"
         style="stroke-linecap:butt;stroke-linejoin:round" />
    </clipPath>
    <clipPath
       id="clipPath5645"
       style="stroke-linecap:butt;stroke-linejoin:round">
      <rect
         height="72"
         width="69.120003"
         x="272.16"
         y="9"
         id="rect5647"
         style="stroke-linecap:butt;stroke-linejoin:round" />
    </clipPath>
    <clipPath
       id="p65e1c8b035-8-8"
       style="stroke-linecap:butt;stroke-linejoin:round">
      <rect
         height="72"
         width="69.120003"
         x="194.39999"
         y="9"
         id="rect198-7-0"
         style="stroke-linecap:butt;stroke-linejoin:round" />
    </clipPath>
    <clipPath
       id="clipPath5706"
       style="stroke-linecap:butt;stroke-linejoin:round">
      <rect
         height="72"
         width="69.120003"
         x="194.39999"
         y="9"
         id="rect5708"
         style="stroke-linecap:butt;stroke-linejoin:round" />
    </clipPath>
    <clipPath
       id="clipPath5710"
       style="stroke-linecap:butt;stroke-linejoin:round">
      <rect
         height="72"
         width="69.120003"
         x="194.39999"
         y="9"
         id="rect5712"
         style="stroke-linecap:butt;stroke-linejoin:round" />
    </clipPath>
    <clipPath
       id="clipPath5714"
       style="stroke-linecap:butt;stroke-linejoin:round">
      <rect
         height="72"
         width="69.120003"
         x="194.39999"
         y="9"
         id="rect5716"
         style="stroke-linecap:butt;stroke-linejoin:round" />
    </clipPath>
    <clipPath
       clipPathUnits="userSpaceOnUse"
       id="clipPath2815-3-5"
       style="stroke-linecap:butt;stroke-linejoin:round">
      <rect
         style="opacity:1;fill:#d533e4;fill-opacity:0.54098361;stroke:none;stroke-width:1;stroke-linecap:butt;stroke-linejoin:round;stroke-miterlimit:4;stroke-dasharray:none;stroke-opacity:1"
         id="rect1913-6-0"
         width="23"
         height="30"
         x="5"
         y="1"
         ry="4.6187186"
         rx="4.6187186" />
    </clipPath>
  </defs>
  <g
     id="matplotlib.axis_3"
     style="stroke-linecap:butt;stroke-linejoin:round"
     transform="translate(-49.985578,-15.615751)" />
  <g
     id="matplotlib.axis_4"
     style="stroke-linecap:butt;stroke-linejoin:round"
     transform="translate(-49.985578,-15.615751)" />
  <defs
     id="defs195">
    <clipPath
       id="p65e1c8b035"
       style="stroke-linecap:butt;stroke-linejoin:round">
      <rect
         height="72"
         width="69.120003"
         x="194.39999"
         y="9"
         id="rect198"
         style="stroke-linecap:butt;stroke-linejoin:round" />
    </clipPath>
    <clipPath
       id="p4dc94feb3b"
       style="stroke-linecap:butt;stroke-linejoin:round">
      <rect
         height="72"
         width="69.120003"
         x="272.16"
         y="9"
         id="rect201"
         style="stroke-linecap:butt;stroke-linejoin:round" />
    </clipPath>
    <clipPath
       id="pfceed726e3"
       style="stroke-linecap:butt;stroke-linejoin:round">
      <rect
         height="72"
         width="69.120003"
         x="349.92001"
         y="9"
         id="rect204"
         style="stroke-linecap:butt;stroke-linejoin:round" />
    </clipPath>
  </defs>
  <g
     id="matplotlib.axis_1-3"
     style="stroke-linecap:butt;stroke-linejoin:round"
     transform="translate(-66.62865,-11.11575)" />
  <g
     id="matplotlib.axis_2-6"
     style="stroke-linecap:butt;stroke-linejoin:round"
     transform="translate(-66.62865,-11.11575)" />
  <g
     id="matplotlib.axis_3-5"
     style="stroke-linecap:butt;stroke-linejoin:round"
     transform="translate(-66.62865,-11.11575)" />
  <g
     id="matplotlib.axis_4-2"
     style="stroke-linecap:butt;stroke-linejoin:round"
     transform="translate(-66.62865,-11.11575)" />
  <g
     id="matplotlib.axis_5-9"
     style="stroke-linecap:butt;stroke-linejoin:round"
     transform="translate(-66.62865,-11.11575)" />
  <g
     id="matplotlib.axis_6-5"
     style="stroke-linecap:butt;stroke-linejoin:round"
     transform="translate(-66.62865,-11.11575)" />
  <g
     id="g4845"
     transform="translate(-30.701113,-1.216748)"
     style="stroke-linecap:butt;stroke-linejoin:round;stroke:#ffffff;stroke-opacity:1">
    <g
       transform="translate(-38.423077,-5.8846154)"
       style="stroke-linecap:butt;stroke-linejoin:round;stroke:#ffffff;stroke-opacity:1"
       id="line2d_1">
      <path
         inkscape:connector-curvature="0"
         id="path59"
         style="fill:none;stroke:#ffffff;stroke-width:1.5;stroke-linecap:square;stroke-linejoin:round;stroke-opacity:1"
         d="m 275.30182,28.25879 8.97662,-15.986063 8.97662,65.454546 8.97663,-3.725297 8.97662,1.461323 8.97662,-53.330994 8.97663,33.82535 8.97662,5.340915"
         clip-path="url(#p4dc94feb3b)" />
    </g>
    <g
       transform="translate(-38.423077,-5.8846154)"
       style="stroke-linecap:butt;stroke-linejoin:round;stroke:#ffffff;stroke-opacity:1"
       id="line2d_2">
      <path
         inkscape:connector-curvature="0"
         id="path62"
         style="fill:none;stroke:#ffffff;stroke-width:1.5;stroke-linecap:square;stroke-linejoin:round;stroke-opacity:1"
         d="m 275.30182,61.597884 8.97662,3.282935 8.97662,7.923558 8.97663,-27.712493 8.97662,7.468067 8.97662,16.267638 8.97663,-48.125965 8.97662,12.675721"
         clip-path="url(#p4dc94feb3b)" />
    </g>
    <g
       transform="translate(-38.423077,-5.8846154)"
       style="stroke-linecap:butt;stroke-linejoin:round;stroke:#ffffff;stroke-opacity:1"
       id="line2d_3">
      <path
         inkscape:connector-curvature="0"
         id="path65"
         style="fill:none;stroke:#ffffff;stroke-width:1.5;stroke-linecap:square;stroke-linejoin:round;stroke-opacity:1"
         d="m 275.30182,61.030555 8.97662,-7.69359 8.97662,17.238272 8.97663,-45.263114 8.97662,34.324255 8.97662,-44.120311 8.97663,2.762201 8.97662,-2.57297"
         clip-path="url(#p4dc94feb3b)" />
    </g>
    <g
       transform="translate(-38.423077,-5.8846154)"
       style="stroke-linecap:butt;stroke-linejoin:round;stroke:#ffffff;stroke-opacity:1"
       id="line2d_4">
      <path
         inkscape:connector-curvature="0"
         id="path68"
         style="fill:none;stroke:#ffffff;stroke-width:1.5;stroke-linecap:square;stroke-linejoin:round;stroke-opacity:1"
         d="m 275.30182,24.671958 8.97662,0.07966 8.97662,29.613671 8.97663,-31.61834 8.97662,20.382852 8.97662,13.662911 8.97663,-20.444602 8.97662,-13.913949"
         clip-path="url(#p4dc94feb3b)" />
    </g>
  </g>
  <rect
     rx="9.737072"
     ry="9.737072"
     y="2.434268"
     x="152.46983"
     height="68.159508"
     width="51.119629"
     id="rect4875-0"
     style="opacity:1;fill:url(#linearGradient4344);fill-opacity:1.0;stroke:#ffffff;stroke-width:2.4;stroke-linecap:butt;stroke-linejoin:round;stroke-miterlimit:4;stroke-dasharray:none;stroke-opacity:1" />
  <path
     sodipodi:type="star"
     style="fill:none;fill-opacity:1;stroke:none;stroke-width:16.23214531;stroke-linecap:butt;stroke-linejoin:round;stroke-miterlimit:4;stroke-dasharray:none;stroke-opacity:1"
     id="path4877-9"
     sodipodi:sides="5"
     sodipodi:cx="229"
     sodipodi:cy="456"
     sodipodi:r1="121.55363"
     sodipodi:r2="60.646587"
     sodipodi:arg1="0.81345017"
     sodipodi:arg2="1.4167054"
     inkscape:flatsided="false"
     inkscape:rounded="0.36"
     inkscape:randomized="0"
     d="m 312.50679,544.32837 c -20.28396,20.1643 -45.83498,-32.08006 -74.19864,-28.40036 -29.32333,3.80421 -41.202,60.28859 -67.50841,46.78663 -25.44547,-13.06007 16.34617,-53.50493 4.08171,-79.34329 -12.67942,-26.71258 -70.06997,-20.55523 -65.35797,-49.74645 4.55778,-28.23586 55.93746,-0.9878 76.72126,-20.63649 21.48703,-20.31349 -2.10362,-72.99241 27.11497,-77.53162 28.26233,-4.39065 18.22508,52.89443 43.33464,66.58923 25.95913,14.15816 68.76986,-24.55656 82.11594,1.82928 12.9093,25.52229 -44.67374,33.67836 -49.93898,61.7909 -5.4434,29.06371 44.60573,57.81562 23.63548,78.66217 z"
     transform="matrix(0.22320482,0.02795664,-0.02795664,0.22320482,140.9068,-72.10314)" />
  <path
     transform="matrix(0.18275321,0.0010707,-0.0010707,0.18275321,132.10008,-33.894699)"
     d="m 294.46869,523.45259 c -9.08043,8.81335 -45.57491,-17.76993 -58.10148,-15.97712 -12.52658,1.79282 -40.09949,37.54547 -51.28749,31.63294 -11.18801,-5.91252 2.81678,-48.83551 -2.75921,-60.19499 -5.57599,-11.35947 -48.09928,-26.53469 -45.93342,-39.00218 2.16586,-12.46749 47.31577,-12.41208 56.39619,-21.22544 9.08043,-8.81335 10.3725,-53.9448 22.89908,-55.73762 12.52657,-1.79281 26.42597,41.16443 37.61397,47.07695 11.188,5.91252 54.50984,-6.80503 60.08583,4.55445 5.57599,11.35947 -30.98363,37.85309 -33.14948,50.32059 -2.16586,12.46749 23.31643,49.73906 14.23601,58.55242 z"
     inkscape:randomized="0"
     inkscape:rounded="0.21"
     inkscape:flatsided="false"
     sodipodi:arg2="1.428641"
     sodipodi:arg1="0.80032243"
     sodipodi:r2="52"
     sodipodi:r1="94"
     sodipodi:cy="456"
     sodipodi:cx="229"
     sodipodi:sides="5"
     id="path4879-3"
     style="fill:url(#linearGradient4386-3);fill-opacity:1;stroke:#ffffff;stroke-width:15.98369503;stroke-linecap:butt;stroke-linejoin:round;stroke-miterlimit:4;stroke-dasharray:none;stroke-opacity:1"
     sodipodi:type="star" />
  <path
     sodipodi:type="star"
     style="fill:url(#linearGradient2975-2);fill-opacity:1;stroke:#ffffff;stroke-width:24.86989784;stroke-linecap:butt;stroke-linejoin:round;stroke-miterlimit:4;stroke-dasharray:none;stroke-opacity:1"
     id="path4889-6"
     sodipodi:sides="5"
     sodipodi:cx="229"
     sodipodi:cy="456"
     sodipodi:r1="94"
     sodipodi:r2="52"
     sodipodi:arg1="0.80032243"
     sodipodi:arg2="1.428641"
     inkscape:flatsided="false"
     inkscape:rounded="0.21"
     inkscape:randomized="0"
     d="m 294.46869,523.45259 c -9.08043,8.81335 -45.57491,-17.76993 -58.10148,-15.97712 -12.52658,1.79282 -40.09949,37.54547 -51.28749,31.63294 -11.18801,-5.91252 2.81678,-48.83551 -2.75921,-60.19499 -5.57599,-11.35947 -48.09928,-26.53469 -45.93342,-39.00218 2.16586,-12.46749 47.31577,-12.41208 56.39619,-21.22544 9.08043,-8.81335 10.3725,-53.9448 22.89908,-55.73762 12.52657,-1.79281 26.42597,41.16443 37.61397,47.07695 11.188,5.91252 54.50984,-6.80503 60.08583,4.55445 5.57599,11.35947 -30.98363,37.85309 -33.14948,50.32059 -2.16586,12.46749 23.31643,49.73906 14.23601,58.55242 z"
     transform="matrix(0.07622606,-0.06140115,0.06140115,0.07622606,143.5138,-1.9308151)" />
  <path
     d="m 31.979692,38.741513 -3.72181,0 0,-2.412173 q -0.49757,0.344596 -1.35339,0.972977 -0.835911,0.608111 -1.63202,0.972976 -0.935428,0.46622 -2.149495,0.770275 -1.214066,0.324325 -2.846089,0.324325 -3.005312,0 -5.095098,-2.027036 -2.089787,-2.027036 -2.089787,-5.168943 0,-2.574336 1.074748,-4.155425 1.09465,-1.601357 3.104825,-2.513524 2.030078,-0.912165 4.876168,-1.236492 2.846089,-0.324325 6.110138,-0.486489 l 0,-0.58784 q 0,-1.297303 -0.45776,-2.148659 -0.43786,-0.851356 -1.273779,-1.337844 -0.796109,-0.466218 -1.910661,-0.628381 -1.114553,-0.162163 -2.328619,-0.162163 -1.472802,0 -3.28395,0.405408 -1.811148,0.385136 -3.741712,1.13514 l -0.199028,0 0,-3.87164 q 1.09465,-0.304056 3.164534,-0.668922 2.069883,-0.364867 4.080058,-0.364867 2.348522,0 4.080059,0.405408 1.751438,0.385136 3.025218,1.337844 1.25387,0.932437 1.91066,2.412173 0.65679,1.479736 0.65679,3.668936 l 0,15.364936 z m -3.72181,-5.57435 0,-6.304083 q -1.711636,0.101352 -4.040254,0.304055 -2.308717,0.202704 -3.662102,0.587841 -1.612121,0.466219 -2.607257,1.459465 -0.995137,0.972979 -0.995137,2.69596 0,1.945954 1.154358,2.939203 1.154359,0.972976 3.522783,0.972976 1.97037,0 3.602394,-0.770273 1.632025,-0.790546 3.025215,-1.885144 z"
     style="font-style:normal;font-variant:normal;font-weight:normal;font-stretch:normal;font-size:medium;line-height:100%;font-family:Verdana;-inkscape-font-specification:Verdana;text-align:start;letter-spacing:0px;word-spacing:0px;writing-mode:lr-tb;text-anchor:start;fill:#ffffff;fill-opacity:1;stroke:none;stroke-width:1px;stroke-linecap:butt;stroke-linejoin:round;stroke-opacity:1"
     id="path4312"
     inkscape:connector-curvature="0" />
  <path
     d="m 57.813432,38.741513 -3.74172,0 0,-12.891952 q 0,-1.560817 -0.17912,-2.918932 -0.17913,-1.378384 -0.65679,-2.148658 -0.49757,-0.851355 -1.433,-1.256762 -0.93543,-0.425678 -2.42813,-0.425678 -1.53251,0 -3.20434,0.770274 -1.67183,0.770272 -3.20434,1.966224 l 0,16.905484 -3.74171,0 0,-22.641997 3.74171,0 0,2.513525 q 1.75144,-1.479736 3.6223,-2.310821 1.87085,-0.831085 3.84122,-0.831085 3.6024,0 5.49316,2.20947 1.89076,2.20947 1.89076,6.364895 l 0,14.696013 z"
     style="font-style:normal;font-variant:normal;font-weight:normal;font-stretch:normal;font-size:medium;line-height:100%;font-family:Verdana;-inkscape-font-specification:Verdana;text-align:start;letter-spacing:0px;word-spacing:0px;writing-mode:lr-tb;text-anchor:start;fill:#ffffff;fill-opacity:1;stroke:none;stroke-width:1px;stroke-linecap:butt;stroke-linejoin:round;stroke-opacity:1"
     id="path4314"
     inkscape:connector-curvature="0" />
  <path
     d="m 85.199572,38.741513 -4.93587,0 -8.91642,-9.912208 -2.42813,2.351362 0,7.560846 -3.74172,0 0,-31.5406865 3.74172,0 0,20.2298225 10.80718,-11.331133 4.71694,0 -10.32951,10.459509 11.08581,12.182488 z"
     style="font-style:normal;font-variant:normal;font-weight:normal;font-stretch:normal;font-size:medium;line-height:100%;font-family:Verdana;-inkscape-font-specification:Verdana;text-align:start;letter-spacing:0px;word-spacing:0px;writing-mode:lr-tb;text-anchor:start;fill:#ffffff;fill-opacity:1;stroke:none;stroke-width:1px;stroke-linecap:butt;stroke-linejoin:round;stroke-opacity:1"
     id="path4316"
     inkscape:connector-curvature="0" />
  <path
     d="m 93.148242,12.308958 -4.184,0 0,-3.9527215 4.184,0 z"
     style="font-style:normal;font-variant:normal;font-weight:normal;font-stretch:normal;font-size:medium;line-height:100%;font-family:Verdana;-inkscape-font-specification:Verdana;text-align:start;letter-spacing:0px;word-spacing:0px;writing-mode:lr-tb;text-anchor:start;fill:#ffffff;fill-opacity:1;stroke:none;stroke-width:1px;stroke-linecap:butt;stroke-linejoin:round;stroke-opacity:1"
     id="path4318"
     inkscape:connector-curvature="0"
     sodipodi:nodetypes="ccccc" />
  <path
     d="m 19.39173,55.694673 q 0,2.682885 -0.769356,4.91205 -0.769357,2.20943 -2.16998,3.74814 -1.301988,1.45981 -3.077426,2.26862 -1.755711,0.78908 -3.72842,0.78908 -1.716257,0 -3.116881,-0.37481 -1.380896,-0.37482 -2.820974,-1.1639 l 0,9.23228 -3.708693,0 0,-30.162724 3.708693,0 0,2.308071 q 1.479532,-1.242807 3.314152,-2.071346 1.854346,-0.848265 3.945418,-0.848265 3.984872,0 6.194306,3.018246 2.229161,2.998518 2.229161,8.344558 z m -3.827055,0.09864 q 0,-3.984872 -1.361169,-5.957581 -1.36117,-1.97271 -4.182144,-1.97271 -1.597894,0 -3.215515,0.69045 -1.617622,0.690448 -3.097154,1.814892 l 0,12.487249 q 1.578168,0.71017 2.702612,0.96663 1.144171,0.25645 2.584249,0.25645 3.097153,0 4.833137,-2.09107 1.735984,-2.09107 1.735984,-6.19431 z"
     style="font-style:normal;font-variant:normal;font-weight:normal;font-stretch:normal;font-size:medium;line-height:100%;font-family:Verdana;-inkscape-font-specification:Verdana;text-align:start;letter-spacing:0px;word-spacing:0px;writing-mode:lr-tb;text-anchor:start;fill:#ffffff;fill-opacity:1;stroke:none;stroke-width:1px;stroke-linecap:butt;stroke-linejoin:round;stroke-opacity:1"
     id="path4321"
     inkscape:connector-curvature="0" />
  <path
     d="m 42.294882,66.978573 -3.68897,0 0,-2.34753 q -0.49317,0.33536 -1.34144,0.9469 -0.82854,0.59181 -1.61762,0.9469 -0.92717,0.45373 -2.13052,0.74963 -1.20336,0.31564 -2.82098,0.31564 -2.97879,0 -5.050133,-1.97271 -2.071345,-1.97271 -2.071345,-5.03041 0,-2.505341 1.065263,-4.044055 1.08499,-1.558439 3.077425,-2.446158 2.01216,-0.887719 4.83314,-1.203354 2.82097,-0.315633 6.05621,-0.473449 l 0,-0.572085 q 0,-1.262535 -0.45372,-2.091072 -0.43399,-0.828539 -1.26253,-1.301988 -0.78909,-0.453723 -1.8938,-0.61154 -1.10472,-0.157816 -2.30807,-0.157816 -1.45981,0 -3.25497,0.394541 -1.79517,0.374815 -3.708695,1.104717 l -0.197271,0 0,-3.767874 q 1.08499,-0.295907 3.136606,-0.650995 2.05162,-0.355087 4.04405,-0.355087 2.3278,0 4.04406,0.394542 1.73598,0.374814 2.99852,1.301988 1.2428,0.907446 1.8938,2.347524 0.65099,1.440077 0.65099,3.570604 l 0,14.953137 z m -3.68897,-5.42495 0,-6.135129 q -1.69653,0.09864 -4.00459,0.295907 -2.28835,0.197271 -3.62979,0.572085 -1.59789,0.453723 -2.58425,1.420351 -0.98635,0.9469 -0.98635,2.623706 0,1.8938 1.14417,2.86043 1.14417,0.9469 3.49169,0.9469 1.95299,0 3.57061,-0.74963 1.61762,-0.76936 2.99851,-1.83462 z"
     style="font-style:normal;font-variant:normal;font-weight:normal;font-stretch:normal;font-size:medium;line-height:100%;font-family:Verdana;-inkscape-font-specification:Verdana;text-align:start;letter-spacing:0px;word-spacing:0px;writing-mode:lr-tb;text-anchor:start;fill:#ffffff;fill-opacity:1;stroke:none;stroke-width:1px;stroke-linecap:butt;stroke-linejoin:round;stroke-opacity:1"
     id="path4323"
     inkscape:connector-curvature="0" />
  <path
     d="m 67.900642,66.978573 -3.70869,0 0,-12.546432 q 0,-1.518986 -0.17754,-2.840701 -0.17755,-1.341443 -0.651,-2.091072 -0.49317,-0.828539 -1.42035,-1.22308 -0.92717,-0.41427 -2.4067,-0.41427 -1.51899,0 -3.17606,0.749631 -1.65708,0.749628 -3.17607,1.913528 l 0,16.452396 -3.70869,0 0,-22.035164 3.70869,0 0,2.44616 q 1.73599,-1.440077 3.59034,-2.248888 1.85434,-0.808812 3.80732,-0.808812 3.57061,0 5.44468,2.150253 1.87407,2.150254 1.87407,6.194307 l 0,14.302144 z"
     style="font-style:normal;font-variant:normal;font-weight:normal;font-stretch:normal;font-size:medium;line-height:100%;font-family:Verdana;-inkscape-font-specification:Verdana;text-align:start;letter-spacing:0px;word-spacing:0px;writing-mode:lr-tb;text-anchor:start;fill:#ffffff;fill-opacity:1;stroke:none;stroke-width:1px;stroke-linecap:butt;stroke-linejoin:round;stroke-opacity:1"
     id="path4325"
     inkscape:connector-curvature="0" />
  <path
     d="m 92.914602,66.978573 -3.7087,0 0,-2.30807 c -1.06526,0.92059 -2.17655,1.63735 -3.33387,2.15025 -1.15733,0.5129 -2.41329,0.76936 -3.76788,0.76936 -2.63028,0 -4.72135,-1.01266 -6.27321,-3.03798 -1.53872,-2.02531 -2.30807,-4.83313 -2.30807,-8.423464 0,-1.867497 0.26302,-3.531148 0.78908,-4.990953 0.53921,-1.459805 1.26253,-2.702611 2.16998,-3.72842 0.8943,-0.999507 1.93326,-1.762287 3.11688,-2.288343 1.19678,-0.526056 2.43301,-0.789084 3.70869,-0.789084 1.15733,0 2.18314,0.124939 3.07743,0.374816 0.89429,0.236724 1.83462,0.61154 2.82097,1.124444 l 0,-29.863634 3.7087,0.0306 z m -3.7087,-5.42495 0,-12.645069 c -0.9995,-0.447146 -1.8938,-0.756205 -2.68288,-0.927173 -0.78909,-0.170968 -1.6505,-0.256452 -2.58425,-0.256452 -2.07792,0 -3.69554,0.723328 -4.85286,2.16998 -1.15733,1.446653 -1.73599,3.498272 -1.73599,6.154852 0,2.617128 0.44715,4.609562 1.34144,5.977312 0.8943,1.35459 2.32781,2.03189 4.30051,2.03189 1.05211,0 2.11738,-0.23015 3.19579,-0.69045 1.07841,-0.47345 2.0845,-1.07842 3.01824,-1.81489 z"
     style="font-style:normal;font-variant:normal;font-weight:normal;font-stretch:normal;font-size:medium;line-height:100%;font-family:Verdana;-inkscape-font-specification:Verdana;text-align:start;letter-spacing:0px;word-spacing:0px;writing-mode:lr-tb;text-anchor:start;fill:#ffffff;fill-opacity:1;stroke:none;stroke-width:1px;stroke-linecap:butt;stroke-linejoin:round;stroke-opacity:1"
     id="path4327"
     inkscape:connector-curvature="0"
     sodipodi:nodetypes="cccsscscccscccccccsssscscc" />
  <path
     d="m 117.33674,66.978573 -3.68897,0 0,-2.34753 q -0.49318,0.33536 -1.34144,0.9469 -0.82854,0.59181 -1.61762,0.9469 -0.92717,0.45373 -2.13053,0.74963 -1.20335,0.31564 -2.82097,0.31564 -2.97879,0 -5.05014,-1.97271 -2.071338,-1.97271 -2.071338,-5.03041 0,-2.505341 1.06526,-4.044055 1.084988,-1.558439 3.077428,-2.446158 2.01216,-0.887719 4.83314,-1.203354 2.82097,-0.315633 6.05621,-0.473449 l 0,-0.572085 q 0,-1.262535 -0.45372,-2.091072 -0.434,-0.828539 -1.26254,-1.301988 -0.78908,-0.453723 -1.8938,-0.61154 -1.10471,-0.157816 -2.30807,-0.157816 -1.4598,0 -3.25497,0.394541 -1.79516,0.374815 -3.70869,1.104717 l -0.19727,0 0,-3.767874 q 1.08499,-0.295907 3.13661,-0.650995 2.05162,-0.355087 4.04405,-0.355087 2.3278,0 4.04405,0.394542 1.73599,0.374814 2.99852,1.301988 1.24281,0.907446 1.8938,2.347524 0.651,1.440077 0.651,3.570604 l 0,14.953137 z m -3.68897,-5.42495 0,-6.135129 q -1.69653,0.09864 -4.0046,0.295907 -2.28834,0.197271 -3.62978,0.572085 -1.5979,0.453723 -2.58425,1.420351 -0.98635,0.9469 -0.98635,2.623706 0,1.8938 1.14417,2.86043 1.14417,0.9469 3.49169,0.9469 1.95298,0 3.5706,-0.74963 1.61762,-0.76936 2.99852,-1.83462 z"
     style="font-style:normal;font-variant:normal;font-weight:normal;font-stretch:normal;font-size:medium;line-height:100%;font-family:Verdana;-inkscape-font-specification:Verdana;text-align:start;letter-spacing:0px;word-spacing:0px;writing-mode:lr-tb;text-anchor:start;fill:#ffffff;fill-opacity:1;stroke:none;stroke-width:1px;stroke-linecap:butt;stroke-linejoin:round;stroke-opacity:1"
     id="path4329"
     inkscape:connector-curvature="0" />
  <path
     d="m 140.25961,60.626443 q 0,3.01825 -2.50534,4.9515 -2.48561,1.93326 -6.80585,1.93326 -2.44615,0 -4.49777,-0.57209 -2.03189,-0.59181 -3.41279,-1.28226 l 0,-4.16241 0.19727,0 q 1.75571,1.32171 3.90597,2.11079 2.15025,0.76936 4.12296,0.76936 2.44616,0 3.82705,-0.78908 1.3809,-0.78909 1.3809,-2.48562 0,-1.30198 -0.74963,-1.972705 -0.74963,-0.670722 -2.88015,-1.144171 -0.78909,-0.177544 -2.07135,-0.414269 -1.26253,-0.236726 -2.30807,-0.512904 -2.89988,-0.769358 -4.12296,-2.248889 -1.20335,-1.499259 -1.20335,-3.669239 0,-1.361169 0.55236,-2.564521 0.57208,-1.203354 1.71625,-2.150254 1.10472,-0.927172 2.80125,-1.459804 1.71626,-0.552359 3.82705,-0.552359 1.97271,0 3.98488,0.493178 2.03189,0.473449 3.37333,1.163897 l 0,3.965146 -0.19727,0 q -1.42035,-1.045535 -3.45224,-1.755711 -2.03189,-0.729903 -3.98487,-0.729903 -2.03189,0 -3.43252,0.789084 -1.40062,0.769356 -1.40062,2.30807 0,1.361169 0.84826,2.051618 0.82854,0.690448 2.68289,1.124444 1.02581,0.236724 2.28834,0.47345 1.28226,0.236725 2.13053,0.433996 2.58424,0.591813 3.98487,2.03189 1.40062,1.459804 1.40062,3.866506 z"
     style="font-style:normal;font-variant:normal;font-weight:normal;font-stretch:normal;font-size:medium;line-height:100%;font-family:Verdana;-inkscape-font-specification:Verdana;text-align:start;letter-spacing:0px;word-spacing:0px;writing-mode:lr-tb;text-anchor:start;fill:#ffffff;fill-opacity:1;stroke:none;stroke-width:1px;stroke-linecap:butt;stroke-linejoin:round;stroke-opacity:1"
     id="path4331"
     inkscape:connector-curvature="0" />
</svg>
