<?xml version="1.0" encoding="UTF-8" standalone="no"?>
<!-- Created with matplotlib (http://matplotlib.org/) -->

<svg
   xmlns:dc="http://purl.org/dc/elements/1.1/"
   xmlns:cc="http://creativecommons.org/ns#"
   xmlns:rdf="http://www.w3.org/1999/02/22-rdf-syntax-ns#"
   xmlns:svg="http://www.w3.org/2000/svg"
   xmlns="http://www.w3.org/2000/svg"
   xmlns:xlink="http://www.w3.org/1999/xlink"
   xmlns:sodipodi="http://sodipodi.sourceforge.net/DTD/sodipodi-0.dtd"
   xmlns:inkscape="http://www.inkscape.org/namespaces/inkscape"
   height="75.106133pt"
   version="1.1"
   viewBox="0 0 270.05951 75.106133"
   width="270.05951pt"
   id="svg2"
   inkscape:version="0.91 r13725"
   sodipodi:docname="logo_rtd.svg">
  <metadata
     id="metadata208">
    <rdf:RDF>
      <cc:Work
         rdf:about="">
        <dc:format>image/svg+xml</dc:format>
        <dc:type
           rdf:resource="http://purl.org/dc/dcmitype/StillImage" />
        <dc:title />
      </cc:Work>
    </rdf:RDF>
  </metadata>
  <sodipodi:namedview
     pagecolor="#2980b9"
     bordercolor="#000000"
     borderopacity="1"
     objecttolerance="10"
     gridtolerance="10"
     guidetolerance="10"
     inkscape:pageopacity="0"
     inkscape:pageshadow="2"
     inkscape:window-width="1920"
     inkscape:window-height="1016"
     id="namedview206"
     showgrid="false"
     inkscape:zoom="9.2444444"
     inkscape:cx="92.081583"
     inkscape:cy="39.370689"
     inkscape:window-x="0"
     inkscape:window-y="27"
     inkscape:window-maximized="1"
     inkscape:current-layer="svg2"
     fit-margin-top="0"
     fit-margin-left="0"
     fit-margin-right="0"
     fit-margin-bottom="0" />
  <defs
     id="defs4"
     style="stroke-linecap:butt;stroke-linejoin:round">
    <style
       type="text/css"
       id="style6">
*{stroke-linecap:butt;stroke-linejoin:round;}
  </style>
    <clipPath
       clipPathUnits="userSpaceOnUse"
       id="clipPath2815"
       style="stroke-linecap:butt;stroke-linejoin:round">
      <rect
         style="opacity:1;fill:#d533e4;fill-opacity:0.54098361;stroke:none;stroke-width:1;stroke-linecap:butt;stroke-linejoin:round;stroke-miterlimit:4;stroke-dasharray:none;stroke-opacity:1"
         id="rect1913"
         width="23"
         height="30"
         x="5"
         y="1"
         ry="4.6187186"
         rx="4.6187186" />
    </clipPath>
    <linearGradient
       id="linearGradient4825">
      <stop
         id="stop4827"
         offset="0"
         style="stop-color:#0084dd;stop-opacity:1" />
      <stop
         id="stop4829"
         offset="1"
         style="stop-color:white;stop-opacity:1" />
    </linearGradient>
    <linearGradient
       id="linearGradient4843">
      <stop
         style="stop-color:white;stop-opacity:0.49411765;"
         offset="0"
         id="stop4845" />
      <stop
         style="stop-color:white;stop-opacity:0.25098041;"
         offset="1"
         id="stop4847" />
    </linearGradient>
    <defs
       id="defs127">
      <path
         d="m 18.109375,8.203125 0,-29 -9.03125,0 0,75.484375 9.03125,0 0,-8.296875 q 2.84375,4.875 7.15625,7.234375 Q 29.59375,56 35.59375,56 q 9.96875,0 16.1875,-7.90625 6.234375,-7.90625 6.234375,-20.796875 0,-12.890625 -6.234375,-20.8125 -6.21875,-7.90625 -16.1875,-7.90625 -6,0 -10.328125,2.375 -4.3125,2.375 -7.15625,7.25 M 48.6875,27.296875 q 0,9.90625 -4.078125,15.546875 -4.078125,5.640625 -11.203125,5.640625 -7.140625,0 -11.21875,-5.640625 -4.078125,-5.640625 -4.078125,-15.546875 0,-9.90625 4.078125,-15.546875 4.078125,-5.640625 11.21875,-5.640625 7.125,0 11.203125,5.640625 4.078125,5.640625 4.078125,15.546875"
         id="DejaVuSans-70"
         inkscape:connector-curvature="0"
         style="stroke-linecap:butt;stroke-linejoin:round" />
      <path
         d="m 34.28125,27.484375 q -10.890625,0 -15.09375,-2.484375 -4.203125,-2.484375 -4.203125,-8.5 0,-4.78125 3.15625,-7.59375 3.15625,-2.796875 8.5625,-2.796875 7.484375,0 12,5.296875 4.515625,5.296875 4.515625,14.078125 l 0,2 z m 17.921875,3.71875 0,-31.203125 -8.984375,0 0,8.296875 q -3.078125,-4.96875 -7.671875,-7.34375 -4.59375,-2.375 -11.234375,-2.375 -8.390625,0 -13.359375,4.71875 Q 6,8.015625 6,15.921875 q 0,9.21875 6.171875,13.90625 6.1875,4.6875 18.4375,4.6875 l 12.609375,0 0,0.890625 q 0,6.203125 -4.078125,9.59375 -4.078125,3.390625 -11.453125,3.390625 -4.6875,0 -9.140625,-1.125 -4.4375,-1.125 -8.53125,-3.375 l 0,8.3125 q 4.921875,1.90625 9.5625,2.84375 Q 24.21875,56 28.609375,56 q 11.875,0 17.734375,-6.15625 5.859375,-6.140625 5.859375,-18.640625"
         id="DejaVuSans-61"
         inkscape:connector-curvature="0"
         style="stroke-linecap:butt;stroke-linejoin:round" />
      <path
         d="m 54.890625,33.015625 0,-33.015625 -8.984375,0 0,32.71875 q 0,7.765625 -3.03125,11.609375 -3.03125,3.859375 -9.078125,3.859375 -7.28125,0 -11.484375,-4.640625 -4.203125,-4.625 -4.203125,-12.640625 l 0,-30.90625 -9.03125,0 0,54.6875 9.03125,0 0,-8.5 q 3.234375,4.9375 7.59375,7.375 4.375,2.4375 10.09375,2.4375 9.421875,0 14.25,-5.828125 4.84375,-5.828125 4.84375,-17.15625"
         id="DejaVuSans-6e"
         inkscape:connector-curvature="0"
         style="stroke-linecap:butt;stroke-linejoin:round" />
      <path
         d="m 45.40625,46.390625 0,29.59375 8.984375,0 0,-75.984375 -8.984375,0 0,8.203125 q -2.828125,-4.875 -7.15625,-7.25 -4.3125,-2.375 -10.375,-2.375 -9.90625,0 -16.140625,7.90625 -6.21875,7.921875 -6.21875,20.8125 0,12.890625 6.21875,20.796875 Q 17.96875,56 27.875,56 q 6.0625,0 10.375,-2.375 4.328125,-2.359375 7.15625,-7.234375 M 14.796875,27.296875 q 0,-9.90625 4.078125,-15.546875 4.078125,-5.640625 11.203125,-5.640625 7.125,0 11.21875,5.640625 4.109375,5.640625 4.109375,15.546875 0,9.90625 -4.109375,15.546875 -4.09375,5.640625 -11.21875,5.640625 -7.125,0 -11.203125,-5.640625 -4.078125,-5.640625 -4.078125,-15.546875"
         id="DejaVuSans-64"
         inkscape:connector-curvature="0"
         style="stroke-linecap:butt;stroke-linejoin:round" />
      <path
         d="m 44.28125,53.078125 0,-8.5 Q 40.484375,46.53125 36.375,47.5 q -4.09375,0.984375 -8.5,0.984375 -6.6875,0 -10.03125,-2.046875 Q 14.5,44.390625 14.5,40.28125 q 0,-3.125 2.390625,-4.90625 2.390625,-1.78125 9.625,-3.390625 l 3.078125,-0.6875 Q 39.15625,29.25 43.1875,25.515625 47.21875,21.78125 47.21875,15.09375 q 0,-7.625 -6.03125,-12.078125 -6.03125,-4.4375 -16.578125,-4.4375 -4.390625,0 -9.15625,0.859375 Q 10.6875,0.296875 5.421875,2 l 0,9.28125 q 4.984375,-2.59375 9.8125,-3.890625 4.828125,-1.28125 9.578125,-1.28125 6.34375,0 9.75,2.171875 3.421875,2.171875 3.421875,6.125 0,3.65625 -2.46875,5.609375 -2.453125,1.953125 -10.8125,3.765625 l -3.125,0.734375 q -8.34375,1.75 -12.0625,5.390625 -3.703125,3.640625 -3.703125,9.984375 0,7.71875 5.46875,11.90625 Q 16.75,56 26.8125,56 q 4.96875,0 9.359375,-0.734375 4.40625,-0.71875 8.109375,-2.1875"
         id="DejaVuSans-73"
         inkscape:connector-curvature="0"
         style="stroke-linecap:butt;stroke-linejoin:round" />
    </defs>
    <clipPath
       clipPathUnits="userSpaceOnUse"
       id="clipPath2815-3"
       style="stroke-linecap:butt;stroke-linejoin:round">
      <rect
         style="opacity:1;fill:#d533e4;fill-opacity:0.54098361;stroke:none;stroke-width:1;stroke-linecap:butt;stroke-linejoin:round;stroke-miterlimit:4;stroke-dasharray:none;stroke-opacity:1"
         id="rect1913-6"
         width="23"
         height="30"
         x="5"
         y="1"
         ry="4.6187186"
         rx="4.6187186" />
    </clipPath>
    <linearGradient
       inkscape:collect="always"
       xlink:href="#linearGradient4825"
       id="linearGradient4386-3"
       gradientUnits="userSpaceOnUse"
       x1="253.74718"
       y1="412.82977"
       x2="188.00023"
       y2="542.33295" />
    <linearGradient
       inkscape:collect="always"
       xlink:href="#linearGradient4825"
       id="linearGradient2975-2"
       gradientUnits="userSpaceOnUse"
       x1="253.74718"
       y1="412.82977"
       x2="188.00023"
       y2="542.33295" />
    <linearGradient
       inkscape:collect="always"
       xlink:href="#linearGradient4843"
       id="linearGradient4344"
       gradientUnits="userSpaceOnUse"
       gradientTransform="matrix(2.3236183,0,0,2.3503271,142.01355,-1.0912239)"
       x1="15.5"
       y1="5.9497476"
       x2="4"
       y2="31" />
    <clipPath
       id="pfceed726e3-6"
       style="stroke-linecap:butt;stroke-linejoin:round">
      <rect
         height="72"
         width="69.120003"
         x="349.92001"
         y="9"
         id="rect204-2"
         style="stroke-linecap:butt;stroke-linejoin:round" />
    </clipPath>
    <clipPath
       id="clipPath4364"
       style="stroke-linecap:butt;stroke-linejoin:round">
      <rect
         height="72"
         width="69.120003"
         x="349.92001"
         y="9"
         id="rect4366"
         style="stroke-linecap:butt;stroke-linejoin:round" />
    </clipPath>
    <clipPath
       id="clipPath4368"
       style="stroke-linecap:butt;stroke-linejoin:round">
      <rect
         height="72"
         width="69.120003"
         x="349.92001"
         y="9"
         id="rect4370"
         style="stroke-linecap:butt;stroke-linejoin:round" />
    </clipPath>
    <clipPath
       id="p4dc94feb3b-6"
       style="stroke-linecap:butt;stroke-linejoin:round">
      <rect
         height="72"
         width="69.120003"
         x="272.16"
         y="9"
         id="rect201-1"
         style="stroke-linecap:butt;stroke-linejoin:round" />
    </clipPath>
    <clipPath
       id="clipPath4374"
       style="stroke-linecap:butt;stroke-linejoin:round">
      <rect
         height="72"
         width="69.120003"
         x="272.16"
         y="9"
         id="rect4376"
         style="stroke-linecap:butt;stroke-linejoin:round" />
    </clipPath>
    <clipPath
       id="clipPath4378"
       style="stroke-linecap:butt;stroke-linejoin:round">
      <rect
         height="72"
         width="69.120003"
         x="272.16"
         y="9"
         id="rect4380"
         style="stroke-linecap:butt;stroke-linejoin:round" />
    </clipPath>
    <clipPath
       id="clipPath4382"
       style="stroke-linecap:butt;stroke-linejoin:round">
      <rect
         height="72"
         width="69.120003"
         x="272.16"
         y="9"
         id="rect4384"
         style="stroke-linecap:butt;stroke-linejoin:round" />
    </clipPath>
    <clipPath
       id="p65e1c8b035-8"
       style="stroke-linecap:butt;stroke-linejoin:round">
      <rect
         height="72"
         width="69.120003"
         x="194.39999"
         y="9"
         id="rect198-7"
         style="stroke-linecap:butt;stroke-linejoin:round" />
    </clipPath>
    <clipPath
       id="clipPath4388"
       style="stroke-linecap:butt;stroke-linejoin:round">
      <rect
         height="72"
         width="69.120003"
         x="194.39999"
         y="9"
         id="rect4390"
         style="stroke-linecap:butt;stroke-linejoin:round" />
    </clipPath>
    <clipPath
       id="clipPath4392"
       style="stroke-linecap:butt;stroke-linejoin:round">
      <rect
         height="72"
         width="69.120003"
         x="194.39999"
         y="9"
         id="rect4394"
         style="stroke-linecap:butt;stroke-linejoin:round" />
    </clipPath>
    <clipPath
       id="clipPath4396"
       style="stroke-linecap:butt;stroke-linejoin:round">
      <rect
         height="72"
         width="69.120003"
         x="194.39999"
         y="9"
         id="rect4398"
         style="stroke-linecap:butt;stroke-linejoin:round" />
    </clipPath>
    <clipPath
       id="clipPath4400"
       style="stroke-linecap:butt;stroke-linejoin:round">
      <rect
         height="72"
         width="69.120003"
         x="194.39999"
         y="9"
         id="rect4402"
         style="stroke-linecap:butt;stroke-linejoin:round" />
    </clipPath>
    <clipPath
       id="clipPath4404"
       style="stroke-linecap:butt;stroke-linejoin:round">
      <rect
         height="72"
         width="69.120003"
         x="194.39999"
         y="9"
         id="rect4406"
         style="stroke-linecap:butt;stroke-linejoin:round" />
    </clipPath>
    <clipPath
       id="clipPath4408"
       style="stroke-linecap:butt;stroke-linejoin:round">
      <rect
         height="72"
         width="69.120003"
         x="194.39999"
         y="9"
         id="rect4410"
         style="stroke-linecap:butt;stroke-linejoin:round" />
    </clipPath>
    <clipPath
       id="clipPath4412"
       style="stroke-linecap:butt;stroke-linejoin:round">
      <rect
         height="72"
         width="69.120003"
         x="194.39999"
         y="9"
         id="rect4414"
         style="stroke-linecap:butt;stroke-linejoin:round" />
    </clipPath>
    <clipPath
       clipPathUnits="userSpaceOnUse"
       id="clipPath2815-3-0"
       style="stroke-linecap:butt;stroke-linejoin:round">
      <rect
         style="opacity:1;fill:#d533e4;fill-opacity:0.54098361;stroke:none;stroke-width:1;stroke-linecap:butt;stroke-linejoin:round;stroke-miterlimit:4;stroke-dasharray:none;stroke-opacity:1"
         id="rect1913-6-4"
         width="23"
         height="30"
         x="5"
         y="1"
         ry="4.6187186"
         rx="4.6187186" />
    </clipPath>
    <clipPath
       clipPathUnits="userSpaceOnUse"
       id="clipPath2815-3-7"
       style="stroke-linecap:butt;stroke-linejoin:round">
      <rect
         style="opacity:1;fill:#d533e4;fill-opacity:0.54098361;stroke:none;stroke-width:1;stroke-linecap:butt;stroke-linejoin:round;stroke-miterlimit:4;stroke-dasharray:none;stroke-opacity:1"
         id="rect1913-6-6"
         width="23"
         height="30"
         x="5"
         y="1"
         ry="4.6187186"
         rx="4.6187186" />
    </clipPath>
    <clipPath
       id="p4dc94feb3b-2"
       style="stroke-linecap:butt;stroke-linejoin:round">
      <rect
         height="72"
         width="69.120003"
         x="272.16"
         y="9"
         id="rect201-9"
         style="stroke-linecap:butt;stroke-linejoin:round" />
    </clipPath>
    <clipPath
       id="clipPath5198"
       style="stroke-linecap:butt;stroke-linejoin:round">
      <rect
         height="72"
         width="69.120003"
         x="272.16"
         y="9"
         id="rect5200"
         style="stroke-linecap:butt;stroke-linejoin:round" />
    </clipPath>
    <clipPath
       id="clipPath5202"
       style="stroke-linecap:butt;stroke-linejoin:round">
      <rect
         height="72"
         width="69.120003"
         x="272.16"
         y="9"
         id="rect5204"
         style="stroke-linecap:butt;stroke-linejoin:round" />
    </clipPath>
    <clipPath
       id="clipPath5206"
       style="stroke-linecap:butt;stroke-linejoin:round">
      <rect
         height="72"
         width="69.120003"
         x="272.16"
         y="9"
         id="rect5208"
         style="stroke-linecap:butt;stroke-linejoin:round" />
    </clipPath>
    <clipPath
       id="pfceed726e3-6-9"
       style="stroke-linecap:butt;stroke-linejoin:round">
      <rect
         height="72"
         width="69.120003"
         x="349.92001"
         y="9"
         id="rect204-2-8"
         style="stroke-linecap:butt;stroke-linejoin:round" />
    </clipPath>
    <clipPath
       id="clipPath5329"
       style="stroke-linecap:butt;stroke-linejoin:round">
      <rect
         height="72"
         width="69.120003"
         x="349.92001"
         y="9"
         id="rect5331"
         style="stroke-linecap:butt;stroke-linejoin:round" />
    </clipPath>
    <clipPath
       id="clipPath5333"
       style="stroke-linecap:butt;stroke-linejoin:round">
      <rect
         height="72"
         width="69.120003"
         x="349.92001"
         y="9"
         id="rect5335"
         style="stroke-linecap:butt;stroke-linejoin:round" />
    </clipPath>
    <clipPath
       clipPathUnits="userSpaceOnUse"
       id="clipPath2815-3-7-9"
       style="stroke-linecap:butt;stroke-linejoin:round">
      <rect
         style="opacity:1;fill:#d533e4;fill-opacity:0.54098361;stroke:none;stroke-width:1;stroke-linecap:butt;stroke-linejoin:round;stroke-miterlimit:4;stroke-dasharray:none;stroke-opacity:1"
         id="rect1913-6-6-6"
         width="23"
         height="30"
         x="5"
         y="1"
         ry="4.6187186"
         rx="4.6187186" />
    </clipPath>
    <clipPath
       clipPathUnits="userSpaceOnUse"
       id="clipPath2815-3-7-9-1"
       style="stroke-linecap:butt;stroke-linejoin:round">
      <rect
         style="opacity:1;fill:#d533e4;fill-opacity:0.54098361;stroke:none;stroke-width:1;stroke-linecap:butt;stroke-linejoin:round;stroke-miterlimit:4;stroke-dasharray:none;stroke-opacity:1"
         id="rect1913-6-6-6-8"
         width="23"
         height="30"
         x="5"
         y="1"
         ry="4.6187186"
         rx="4.6187186" />
    </clipPath>
    <clipPath
       id="pfceed726e3-6-9-8"
       style="stroke-linecap:butt;stroke-linejoin:round">
      <rect
         height="72"
         width="69.120003"
         x="349.92001"
         y="9"
         id="rect204-2-8-8"
         style="stroke-linecap:butt;stroke-linejoin:round" />
    </clipPath>
    <clipPath
       id="clipPath5510"
       style="stroke-linecap:butt;stroke-linejoin:round">
      <rect
         height="72"
         width="69.120003"
         x="349.92001"
         y="9"
         id="rect5512"
         style="stroke-linecap:butt;stroke-linejoin:round" />
    </clipPath>
    <clipPath
       id="clipPath5514"
       style="stroke-linecap:butt;stroke-linejoin:round">
      <rect
         height="72"
         width="69.120003"
         x="349.92001"
         y="9"
         id="rect5516"
         style="stroke-linecap:butt;stroke-linejoin:round" />
    </clipPath>
    <clipPath
       id="p4dc94feb3b-2-7"
       style="stroke-linecap:butt;stroke-linejoin:round">
      <rect
         height="72"
         width="69.120003"
         x="272.16"
         y="9"
         id="rect201-9-7"
         style="stroke-linecap:butt;stroke-linejoin:round" />
    </clipPath>
    <clipPath
       id="clipPath5637"
       style="stroke-linecap:butt;stroke-linejoin:round">
      <rect
         height="72"
         width="69.120003"
         x="272.16"
         y="9"
         id="rect5639"
         style="stroke-linecap:butt;stroke-linejoin:round" />
    </clipPath>
    <clipPath
       id="clipPath5641"
       style="stroke-linecap:butt;stroke-linejoin:round">
      <rect
         height="72"
         width="69.120003"
         x="272.16"
         y="9"
         id="rect5643"
         style="stroke-linecap:butt;stroke-linejoin:round" />
    </clipPath>
    <clipPath
       id="clipPath5645"
       style="stroke-linecap:butt;stroke-linejoin:round">
      <rect
         height="72"
         width="69.120003"
         x="272.16"
         y="9"
         id="rect5647"
         style="stroke-linecap:butt;stroke-linejoin:round" />
    </clipPath>
    <clipPath
       id="p65e1c8b035-8-8"
       style="stroke-linecap:butt;stroke-linejoin:round">
      <rect
         height="72"
         width="69.120003"
         x="194.39999"
         y="9"
         id="rect198-7-0"
         style="stroke-linecap:butt;stroke-linejoin:round" />
    </clipPath>
    <clipPath
       id="clipPath5706"
       style="stroke-linecap:butt;stroke-linejoin:round">
      <rect
         height="72"
         width="69.120003"
         x="194.39999"
         y="9"
         id="rect5708"
         style="stroke-linecap:butt;stroke-linejoin:round" />
    </clipPath>
    <clipPath
       id="clipPath5710"
       style="stroke-linecap:butt;stroke-linejoin:round">
      <rect
         height="72"
         width="69.120003"
         x="194.39999"
         y="9"
         id="rect5712"
         style="stroke-linecap:butt;stroke-linejoin:round" />
    </clipPath>
    <clipPath
       id="clipPath5714"
       style="stroke-linecap:butt;stroke-linejoin:round">
      <rect
         height="72"
         width="69.120003"
         x="194.39999"
         y="9"
         id="rect5716"
         style="stroke-linecap:butt;stroke-linejoin:round" />
    </clipPath>
    <clipPath
       clipPathUnits="userSpaceOnUse"
       id="clipPath2815-3-5"
       style="stroke-linecap:butt;stroke-linejoin:round">
      <rect
         style="opacity:1;fill:#d533e4;fill-opacity:0.54098361;stroke:none;stroke-width:1;stroke-linecap:butt;stroke-linejoin:round;stroke-miterlimit:4;stroke-dasharray:none;stroke-opacity:1"
         id="rect1913-6-0"
         width="23"
         height="30"
         x="5"
         y="1"
         ry="4.6187186"
         rx="4.6187186" />
    </clipPath>
  </defs>
  <g
     id="matplotlib.axis_3"
     style="stroke-linecap:butt;stroke-linejoin:round"
     transform="translate(-49.985578,-15.615751)" />
  <g
     id="matplotlib.axis_4"
     style="stroke-linecap:butt;stroke-linejoin:round"
     transform="translate(-49.985578,-15.615751)" />
  <defs
     id="defs195">
    <clipPath
       id="p65e1c8b035"
       style="stroke-linecap:butt;stroke-linejoin:round">
      <rect
         height="72"
         width="69.120003"
         x="194.39999"
         y="9"
         id="rect198"
         style="stroke-linecap:butt;stroke-linejoin:round" />
    </clipPath>
    <clipPath
       id="p4dc94feb3b"
       style="stroke-linecap:butt;stroke-linejoin:round">
      <rect
         height="72"
         width="69.120003"
         x="272.16"
         y="9"
         id="rect201"
         style="stroke-linecap:butt;stroke-linejoin:round" />
    </clipPath>
    <clipPath
       id="pfceed726e3"
       style="stroke-linecap:butt;stroke-linejoin:round">
      <rect
         height="72"
         width="69.120003"
         x="349.92001"
         y="9"
         id="rect204"
         style="stroke-linecap:butt;stroke-linejoin:round" />
    </clipPath>
  </defs>
  <g
     id="matplotlib.axis_1-3"
     style="stroke-linecap:butt;stroke-linejoin:round"
     transform="translate(-66.62865,-11.11575)" />
  <g
     id="matplotlib.axis_2-6"
     style="stroke-linecap:butt;stroke-linejoin:round"
     transform="translate(-66.62865,-11.11575)" />
  <g
     id="matplotlib.axis_3-5"
     style="stroke-linecap:butt;stroke-linejoin:round"
     transform="translate(-66.62865,-11.11575)" />
  <g
     id="matplotlib.axis_4-2"
     style="stroke-linecap:butt;stroke-linejoin:round"
     transform="translate(-66.62865,-11.11575)" />
  <g
     id="matplotlib.axis_5-9"
     style="stroke-linecap:butt;stroke-linejoin:round"
     transform="translate(-66.62865,-11.11575)" />
  <g
     id="matplotlib.axis_6-5"
     style="stroke-linecap:butt;stroke-linejoin:round"
     transform="translate(-66.62865,-11.11575)" />
  <g
     id="g4845"
     transform="translate(-30.701113,-1.216748)"
     style="stroke-linecap:butt;stroke-linejoin:round;stroke:#ffffff;stroke-opacity:1">
    <g
       transform="translate(-38.423077,-5.8846154)"
       style="stroke-linecap:butt;stroke-linejoin:round;stroke:#ffffff;stroke-opacity:1"
       id="line2d_1">
      <path
         inkscape:connector-curvature="0"
         id="path59"
         style="fill:none;stroke:#ffffff;stroke-width:1.5;stroke-linecap:square;stroke-linejoin:round;stroke-opacity:1"
         d="m 275.30182,28.25879 8.97662,-15.986063 8.97662,65.454546 8.97663,-3.725297 8.97662,1.461323 8.97662,-53.330994 8.97663,33.82535 8.97662,5.340915"
         clip-path="url(#p4dc94feb3b)" />
    </g>
    <g
       transform="translate(-38.423077,-5.8846154)"
       style="stroke-linecap:butt;stroke-linejoin:round;stroke:#ffffff;stroke-opacity:1"
       id="line2d_2">
      <path
         inkscape:connector-curvature="0"
         id="path62"
         style="fill:none;stroke:#ffffff;stroke-width:1.5;stroke-linecap:square;stroke-linejoin:round;stroke-opacity:1"
         d="m 275.30182,61.597884 8.97662,3.282935 8.97662,7.923558 8.97663,-27.712493 8.97662,7.468067 8.97662,16.267638 8.97663,-48.125965 8.97662,12.675721"
         clip-path="url(#p4dc94feb3b)" />
    </g>
    <g
       transform="translate(-38.423077,-5.8846154)"
       style="stroke-linecap:butt;stroke-linejoin:round;stroke:#ffffff;stroke-opacity:1"
       id="line2d_3">
      <path
         inkscape:connector-curvature="0"
         id="path65"
         style="fill:none;stroke:#ffffff;stroke-width:1.5;stroke-linecap:square;stroke-linejoin:round;stroke-opacity:1"
         d="m 275.30182,61.030555 8.97662,-7.69359 8.97662,17.238272 8.97663,-45.263114 8.97662,34.324255 8.97662,-44.120311 8.97663,2.762201 8.97662,-2.57297"
         clip-path="url(#p4dc94feb3b)" />
    </g>
    <g
       transform="translate(-38.423077,-5.8846154)"
       style="stroke-linecap:butt;stroke-linejoin:round;stroke:#ffffff;stroke-opacity:1"
       id="line2d_4">
      <path
         inkscape:connector-curvature="0"
         id="path68"
         style="fill:none;stroke:#ffffff;stroke-width:1.5;stroke-linecap:square;stroke-linejoin:round;stroke-opacity:1"
         d="m 275.30182,24.671958 8.97662,0.07966 8.97662,29.613671 8.97663,-31.61834 8.97662,20.382852 8.97662,13.662911 8.97663,-20.444602 8.97662,-13.913949"
         clip-path="url(#p4dc94feb3b)" />
    </g>
  </g>
  <rect
     rx="9.737072"
     ry="9.737072"
     y="2.434268"
     x="152.46983"
     height="68.159508"
     width="51.119629"
     id="rect4875-0"
     style="opacity:1;fill:url(#linearGradient4344);fill-opacity:1.0;stroke:#ffffff;stroke-width:2.4;stroke-linecap:butt;stroke-linejoin:round;stroke-miterlimit:4;stroke-dasharray:none;stroke-opacity:1" />
  <path
     sodipodi:type="star"
     style="fill:none;fill-opacity:1;stroke:none;stroke-width:16.23214531;stroke-linecap:butt;stroke-linejoin:round;stroke-miterlimit:4;stroke-dasharray:none;stroke-opacity:1"
     id="path4877-9"
     sodipodi:sides="5"
     sodipodi:cx="229"
     sodipodi:cy="456"
     sodipodi:r1="121.55363"
     sodipodi:r2="60.646587"
     sodipodi:arg1="0.81345017"
     sodipodi:arg2="1.4167054"
     inkscape:flatsided="false"
     inkscape:rounded="0.36"
     inkscape:randomized="0"
     d="m 312.50679,544.32837 c -20.28396,20.1643 -45.83498,-32.08006 -74.19864,-28.40036 -29.32333,3.80421 -41.202,60.28859 -67.50841,46.78663 -25.44547,-13.06007 16.34617,-53.50493 4.08171,-79.34329 -12.67942,-26.71258 -70.06997,-20.55523 -65.35797,-49.74645 4.55778,-28.23586 55.93746,-0.9878 76.72126,-20.63649 21.48703,-20.31349 -2.10362,-72.99241 27.11497,-77.53162 28.26233,-4.39065 18.22508,52.89443 43.33464,66.58923 25.95913,14.15816 68.76986,-24.55656 82.11594,1.82928 12.9093,25.52229 -44.67374,33.67836 -49.93898,61.7909 -5.4434,29.06371 44.60573,57.81562 23.63548,78.66217 z"
     transform="matrix(0.22320482,0.02795664,-0.02795664,0.22320482,140.9068,-72.10314)" />
  <path
     transform="matrix(0.18275321,0.0010707,-0.0010707,0.18275321,132.10008,-33.894699)"
     d="m 294.46869,523.45259 c -9.08043,8.81335 -45.57491,-17.76993 -58.10148,-15.97712 -12.52658,1.79282 -40.09949,37.54547 -51.28749,31.63294 -11.18801,-5.91252 2.81678,-48.83551 -2.75921,-60.19499 -5.57599,-11.35947 -48.09928,-26.53469 -45.93342,-39.00218 2.16586,-12.46749 47.31577,-12.41208 56.39619,-21.22544 9.08043,-8.81335 10.3725,-53.9448 22.89908,-55.73762 12.52657,-1.79281 26.42597,41.16443 37.61397,47.07695 11.188,5.91252 54.50984,-6.80503 60.08583,4.55445 5.57599,11.35947 -30.98363,37.85309 -33.14948,50.32059 -2.16586,12.46749 23.31643,49.73906 14.23601,58.55242 z"
     inkscape:randomized="0"
     inkscape:rounded="0.21"
     inkscape:flatsided="false"
     sodipodi:arg2="1.428641"
     sodipodi:arg1="0.80032243"
     sodipodi:r2="52"
     sodipodi:r1="94"
     sodipodi:cy="456"
     sodipodi:cx="229"
     sodipodi:sides="5"
     id="path4879-3"
     style="fill:url(#linearGradient4386-3);fill-opacity:1;stroke:#ffffff;stroke-width:15.98369503;stroke-linecap:butt;stroke-linejoin:round;stroke-miterlimit:4;stroke-dasharray:none;stroke-opacity:1"
     sodipodi:type="star" />
  <path
     sodipodi:type="star"
     style="fill:url(#linearGradient2975-2);fill-opacity:1;stroke:#ffffff;stroke-width:24.86989784;stroke-linecap:butt;stroke-linejoin:round;stroke-miterlimit:4;stroke-dasharray:none;stroke-opacity:1"
     id="path4889-6"
     sodipodi:sides="5"
     sodipodi:cx="229"
     sodipodi:cy="456"
     sodipodi:r1="94"
     sodipodi:r2="52"
     sodipodi:arg1="0.80032243"
     sodipodi:arg2="1.428641"
     inkscape:flatsided="false"
     inkscape:rounded="0.21"
     inkscape:randomized="0"
     d="m 294.46869,523.45259 c -9.08043,8.81335 -45.57491,-17.76993 -58.10148,-15.97712 -12.52658,1.79282 -40.09949,37.54547 -51.28749,31.63294 -11.18801,-5.91252 2.81678,-48.83551 -2.75921,-60.19499 -5.57599,-11.35947 -48.09928,-26.53469 -45.93342,-39.00218 2.16586,-12.46749 47.31577,-12.41208 56.39619,-21.22544 9.08043,-8.81335 10.3725,-53.9448 22.89908,-55.73762 12.52657,-1.79281 26.42597,41.16443 37.61397,47.07695 11.188,5.91252 54.50984,-6.80503 60.08583,4.55445 5.57599,11.35947 -30.98363,37.85309 -33.14948,50.32059 -2.16586,12.46749 23.31643,49.73906 14.23601,58.55242 z"
     transform="matrix(0.07622606,-0.06140115,0.06140115,0.07622606,143.5138,-1.9308151)" />
  <path
     d="m 31.97969,38.741514 -3.721809,0 0,-2.412173 q -0.497568,0.344596 -1.353385,0.972977 -0.835915,0.608111 -1.632024,0.972977 -0.935428,0.466219 -2.149495,0.770274 -1.214066,0.324326 -2.846089,0.324326 -3.005312,0 -5.095098,-2.027036 -2.089787,-2.027036 -2.089787,-5.168943 0,-2.574336 1.074748,-4.155425 1.09465,-1.601358 3.104825,-2.513525 2.030078,-0.912165 4.876168,-1.236492 2.846089,-0.324325 6.110137,-0.486489 l 0,-0.58784 q 0,-1.297303 -0.457763,-2.148659 -0.43786,-0.851355 -1.273775,-1.337843 -0.796109,-0.466219 -1.910661,-0.628382 -1.114553,-0.162162 -2.328619,-0.162162 -1.472802,0 -3.28395,0.405407 -1.811148,0.385137 -3.741712,1.13514 l -0.199028,0 0,-3.871639 q 1.09465,-0.304056 3.164534,-0.668923 2.069883,-0.364866 4.080058,-0.364866 2.348522,0 4.080059,0.405408 1.75144,0.385136 3.025214,1.337843 1.253873,0.932437 1.910663,2.412174 0.656789,1.479736 0.656789,3.668935 l 0,15.364936 z m -3.721809,-5.57435 0,-6.304083 q -1.711635,0.101352 -4.040253,0.304055 -2.308717,0.202704 -3.662102,0.587841 -1.612121,0.466219 -2.607257,1.459466 -0.995137,0.972978 -0.995137,2.695959 0,1.945954 1.154358,2.939203 1.154359,0.972976 3.522783,0.972976 1.97037,0 3.602394,-0.770273 1.632023,-0.790545 3.025214,-1.885144 z"
     style="font-style:normal;font-variant:normal;font-weight:normal;font-stretch:normal;font-size:medium;line-height:100%;font-family:Verdana;-inkscape-font-specification:Verdana;text-align:start;letter-spacing:0px;word-spacing:0px;writing-mode:lr-tb;text-anchor:start;fill:#ffffff;fill-opacity:1;stroke:none;stroke-width:1px;stroke-linecap:butt;stroke-linejoin:round;stroke-opacity:1"
     id="path4263"
     inkscape:connector-curvature="0" />
  <path
     d="m 57.813428,38.741514 -3.741712,0 0,-12.891951 q 0,-1.560818 -0.179125,-2.918932 -0.179124,-1.378385 -0.65679,-2.148659 -0.497567,-0.851355 -1.432995,-1.256762 -0.935429,-0.425678 -2.428133,-0.425678 -1.532511,0 -3.20434,0.770274 -1.671829,0.770273 -3.204338,1.966225 l 0,16.905483 -3.741713,0 0,-22.641996 3.741713,0 0,2.513525 q 1.75144,-1.479736 3.622296,-2.310821 1.870856,-0.831085 3.841226,-0.831085 3.602393,0 5.493152,2.20947 1.890759,2.209469 1.890759,6.364894 l 0,14.696013 z"
     style="font-style:normal;font-variant:normal;font-weight:normal;font-stretch:normal;font-size:medium;line-height:100%;font-family:Verdana;-inkscape-font-specification:Verdana;text-align:start;letter-spacing:0px;word-spacing:0px;writing-mode:lr-tb;text-anchor:start;fill:#ffffff;fill-opacity:1;stroke:none;stroke-width:1px;stroke-linecap:butt;stroke-linejoin:round;stroke-opacity:1"
     id="path4265"
     inkscape:connector-curvature="0" />
  <path
     d="m 85.199578,38.741514 -4.935876,0 -8.916421,-9.912207 -2.428133,2.351361 0,7.560846 -3.741712,0 0,-31.5406856 3.741712,0 0,20.2298226 10.80718,-11.331133 4.716946,0 -10.329514,10.459508 11.085818,12.182488 z"
     style="font-style:normal;font-variant:normal;font-weight:normal;font-stretch:normal;font-size:medium;line-height:100%;font-family:Verdana;-inkscape-font-specification:Verdana;text-align:start;letter-spacing:0px;word-spacing:0px;writing-mode:lr-tb;text-anchor:start;fill:#ffffff;fill-opacity:1;stroke:none;stroke-width:1px;stroke-linecap:butt;stroke-linejoin:round;stroke-opacity:1"
     id="path4267"
     inkscape:connector-curvature="0" />
  <path
     d="m 93.149106,12.30896 -4.176,0 0,-3.952721 4.176,0 0,3.952721 z m -0.236377,26.432554 -3.703248,0 0,-22.641996 3.703248,0 0,22.641996 z"
     style="font-style:normal;font-variant:normal;font-weight:normal;font-stretch:normal;font-size:medium;line-height:100%;font-family:Verdana;-inkscape-font-specification:Verdana;text-align:start;letter-spacing:0px;word-spacing:0px;writing-mode:lr-tb;text-anchor:start;fill:#ffffff;fill-opacity:1;stroke:none;stroke-width:1px;stroke-linecap:butt;stroke-linejoin:round;stroke-opacity:1"
     id="path4269"
     inkscape:connector-curvature="0" />
  <g
     id="text4252-0-9"
     style="font-style:normal;font-variant:normal;font-weight:normal;font-stretch:normal;font-size:40.40108109px;line-height:100%;font-family:'OCR A Extended';-inkscape-font-specification:'OCR A Extended, Normal';text-align:start;letter-spacing:0px;word-spacing:0px;writing-mode:lr-tb;text-anchor:start;fill:#ffffff;fill-opacity:1;stroke:none;stroke-width:1px;stroke-linecap:butt;stroke-linejoin:miter;stroke-opacity:1"
     transform="translate(11.603572,-7.779272)">
    <path
       inkscape:connector-curvature="0"
       id="path4272"
       style="font-style:normal;font-variant:normal;font-weight:normal;font-stretch:normal;font-family:Verdana;-inkscape-font-specification:Verdana;fill:#ffffff;stroke-linecap:butt;stroke-linejoin:round"
       d="m 7.7881583,63.473947 q 0,2.682885 -0.7693565,4.912046 -0.7693565,2.209434 -2.1699799,3.748147 -1.301988,1.459805 -3.0774261,2.268615 -1.75571108,0.789084 -3.7284201,0.789084 -1.7162569,0 -3.1168803,-0.374815 -1.3808963,-0.374814 -2.8209739,-1.163898 l 0,9.232278 -3.7086935,0 0,-30.162721 3.7086935,0 0,2.30807 q 1.4795318,-1.242807 3.3141512,-2.071345 1.8543465,-0.848265 3.94541804,-0.848265 3.98487226,0 6.19430636,3.018245 2.2291612,2.998518 2.2291612,8.344559 z m -3.8270555,0.09864 q 0,-3.984872 -1.3611692,-5.957582 -1.3611693,-1.972709 -4.1821432,-1.972709 -1.5978943,0 -3.2155157,0.690449 -1.6176214,0.690448 -3.0971532,1.814892 l 0,12.487248 q 1.5781672,0.710175 2.7026114,0.966628 1.1441712,0.256452 2.5842488,0.256452 3.09715319,0 4.8331371,-2.091072 1.735984,-2.091071 1.735984,-6.194306 z" />
    <path
       inkscape:connector-curvature="0"
       id="path4274"
       style="font-style:normal;font-variant:normal;font-weight:normal;font-stretch:normal;font-family:Verdana;-inkscape-font-specification:Verdana;fill:#ffffff;stroke-linecap:butt;stroke-linejoin:round"
       d="m 30.691311,74.757843 -3.688966,0 0,-2.347524 q -0.493177,0.335361 -1.341442,0.946901 -0.828538,0.591812 -1.617621,0.9469 -0.927174,0.453723 -2.130526,0.749629 -1.203353,0.315634 -2.820974,0.315634 -2.978791,0 -5.050135,-1.972709 -2.071345,-1.972709 -2.071345,-5.030408 0,-2.505341 1.065263,-4.044054 1.08499,-1.55844 3.077426,-2.446159 2.012164,-0.887719 4.833137,-1.203353 2.820974,-0.315633 6.056217,-0.47345 l 0,-0.572085 q 0,-1.262534 -0.453723,-2.091072 -0.433996,-0.828538 -1.262534,-1.301988 -0.789083,-0.453723 -1.8938,-0.61154 -1.104717,-0.157816 -2.30807,-0.157816 -1.459805,0 -3.25497,0.394541 -1.795165,0.374815 -3.708693,1.104718 l -0.197271,0 0,-3.767875 q 1.08499,-0.295906 3.136608,-0.650994 2.051617,-0.355087 4.044053,-0.355087 2.327797,0 4.044054,0.394541 1.735984,0.374815 2.998517,1.301988 1.242807,0.907447 1.893801,2.347524 0.650994,1.440078 0.650994,3.570604 l 0,14.953134 z m -3.688966,-5.42495 0,-6.135125 q -1.69653,0.09864 -4.004599,0.295906 -2.288343,0.197271 -3.629785,0.572086 -1.597894,0.453723 -2.584249,1.420351 -0.986354,0.9469 -0.986354,2.623703 0,1.8938 1.144171,2.860428 1.144171,0.9469 3.491695,0.9469 1.952982,0 3.570603,-0.749629 1.617622,-0.769357 2.998518,-1.83462 z" />
    <path
       inkscape:connector-curvature="0"
       id="path4276"
       style="font-style:normal;font-variant:normal;font-weight:normal;font-stretch:normal;font-family:Verdana;-inkscape-font-specification:Verdana;fill:#ffffff;stroke-linecap:butt;stroke-linejoin:round"
       d="m 56.297075,74.757843 -3.708693,0 0,-12.546429 q 0,-1.518986 -0.177544,-2.840701 -0.177544,-1.341443 -0.650994,-2.091072 -0.493177,-0.828538 -1.42035,-1.22308 -0.927174,-0.414269 -2.406705,-0.414269 -1.518986,0 -3.176062,0.74963 -1.657076,0.749629 -3.176062,1.913528 l 0,16.452393 -3.708693,0 0,-22.03516 3.708693,0 0,2.446159 q 1.735984,-1.440077 3.590331,-2.248888 1.854346,-0.808811 3.807328,-0.808811 3.570604,0 5.444677,2.150253 1.874074,2.150253 1.874074,6.194306 l 0,14.302141 z" />
    <path
       inkscape:connector-curvature="0"
       id="path4278"
       style="font-style:normal;font-variant:normal;font-weight:normal;font-stretch:normal;font-family:Verdana;-inkscape-font-specification:Verdana;fill:#ffffff;stroke-linecap:butt;stroke-linejoin:round"
       d="m 81.311027,74.757843 -3.708693,0 0,-2.30807 q -1.597894,1.380897 -3.333878,2.150253 -1.735984,0.769357 -3.767874,0.769357 -3.945418,0 -6.273215,-3.037972 -2.30807,-3.037972 -2.30807,-8.423468 0,-2.801247 0.789084,-4.990954 0.808811,-2.189707 2.16998,-3.72842 1.341442,-1.499259 3.11688,-2.288342 1.795165,-0.789084 3.708693,-0.789084 1.735984,0 3.077426,0.374815 1.341442,0.355088 2.820974,1.124444 l 0,-9.547912 3.708693,0 0,30.695353 z m -3.708693,-5.42495 0,-12.645065 q -1.499259,-0.670721 -2.682884,-0.927173 -1.183625,-0.256452 -2.584249,-0.256452 -3.11688,0 -4.852864,2.16998 -1.735984,2.16998 -1.735984,6.154852 0,3.925691 1.341442,5.977308 1.341442,2.031891 4.300506,2.031891 1.578167,0 3.195788,-0.690449 1.617622,-0.710175 3.018245,-1.814892 z" />
    <path
       inkscape:connector-curvature="0"
       id="path4280"
       style="font-style:normal;font-variant:normal;font-weight:normal;font-stretch:normal;font-family:Verdana;-inkscape-font-specification:Verdana;fill:#ffffff;stroke-linecap:butt;stroke-linejoin:round"
       d="m 105.73317,74.757843 -3.68897,0 0,-2.347524 q -0.49318,0.335361 -1.34144,0.946901 -0.82854,0.591812 -1.617623,0.9469 -0.927174,0.453723 -2.130526,0.749629 -1.203353,0.315634 -2.820974,0.315634 -2.978791,0 -5.050135,-1.972709 -2.071345,-1.972709 -2.071345,-5.030408 0,-2.505341 1.065263,-4.044054 1.08499,-1.55844 3.077426,-2.446159 2.012163,-0.887719 4.833137,-1.203353 2.820974,-0.315633 6.056217,-0.47345 l 0,-0.572085 q 0,-1.262534 -0.45372,-2.091072 -0.434,-0.828538 -1.26254,-1.301988 -0.78908,-0.453723 -1.893797,-0.61154 -1.104718,-0.157816 -2.30807,-0.157816 -1.459805,0 -3.25497,0.394541 -1.795165,0.374815 -3.708693,1.104718 l -0.197271,0 0,-3.767875 q 1.08499,-0.295906 3.136608,-0.650994 2.051617,-0.355087 4.044053,-0.355087 2.327797,0 4.04405,0.394541 1.73599,0.374815 2.99852,1.301988 1.24281,0.907447 1.8938,2.347524 0.651,1.440078 0.651,3.570604 l 0,14.953134 z m -3.68897,-5.42495 0,-6.135125 q -1.69653,0.09864 -4.004599,0.295906 -2.288343,0.197271 -3.629785,0.572086 -1.597894,0.453723 -2.584249,1.420351 -0.986354,0.9469 -0.986354,2.623703 0,1.8938 1.144171,2.860428 1.144171,0.9469 3.491695,0.9469 1.952982,0 3.570603,-0.749629 1.617618,-0.769357 2.998518,-1.83462 z" />
    <path
       inkscape:connector-curvature="0"
       id="path4282"
       style="font-style:normal;font-variant:normal;font-weight:normal;font-stretch:normal;font-family:Verdana;-inkscape-font-specification:Verdana;fill:#ffffff;stroke-linecap:butt;stroke-linejoin:round"
       d="m 128.65604,68.40572 q 0,3.018245 -2.50534,4.9515 -2.48561,1.933254 -6.80585,1.933254 -2.44615,0 -4.49777,-0.572085 -2.03189,-0.591813 -3.41279,-1.282261 l 0,-4.162416 0.19727,0 q 1.75571,1.321715 3.90597,2.110799 2.15025,0.769356 4.12296,0.769356 2.44616,0 3.82705,-0.789084 1.3809,-0.789083 1.3809,-2.485613 0,-1.301988 -0.74963,-1.972709 -0.74963,-0.670721 -2.88015,-1.144171 -0.78909,-0.177544 -2.07135,-0.414269 -1.26253,-0.236725 -2.30807,-0.512904 -2.89988,-0.769357 -4.12296,-2.248889 -1.20335,-1.499259 -1.20335,-3.669239 0,-1.361169 0.55236,-2.564521 0.57208,-1.203353 1.71625,-2.150253 1.10472,-0.927173 2.80125,-1.459805 1.71626,-0.552358 3.82705,-0.552358 1.97271,0 3.98488,0.493177 2.03189,0.47345 3.37333,1.163898 l 0,3.965145 -0.19727,0 q -1.42035,-1.045535 -3.45224,-1.755711 -2.03189,-0.729902 -3.98487,-0.729902 -2.03189,0 -3.43252,0.789084 -1.40062,0.769356 -1.40062,2.308069 0,1.361169 0.84826,2.051618 0.82854,0.690448 2.68289,1.124444 1.02581,0.236725 2.28834,0.47345 1.28226,0.236725 2.13053,0.433996 2.58424,0.591813 3.98487,2.03189 1.40062,1.459805 1.40062,3.86651 z" />
  </g>
</svg>
